<mxfile host="drawio-plugin" modified="2023-11-19T17:08:51.461Z" agent="5.0 (Windows NT 6.2; Win64; x64) AppleWebKit/537.36 (KHTML, like Gecko) Chrome/89.0.4389.114 Safari/537.36" etag="aFwv82Xb2qoOgZvWRbm_" version="20.5.3" type="embed"><diagram name="Page-1" id="DG9Ua_sVIuHAXyYFttZD"><mxGraphModel dx="2736" dy="1180" grid="1" gridSize="10" guides="1" tooltips="1" connect="1" arrows="1" fold="1" page="1" pageScale="1" pageWidth="850" pageHeight="1100" math="0" shadow="0"><root><mxCell id="0"/><mxCell id="1" parent="0"/><mxCell id="CAzMv215r4XDbud7KLnu-1" style="edgeStyle=orthogonalEdgeStyle;rounded=0;orthogonalLoop=1;jettySize=auto;html=1;" parent="1" source="tfH775x21Em-WbxbBMdr-21" target="CAzMv215r4XDbud7KLnu-2" edge="1"><mxGeometry relative="1" as="geometry"><mxPoint x="35" y="460" as="targetPoint"/></mxGeometry></mxCell><mxCell id="CAzMv215r4XDbud7KLnu-58" style="edgeStyle=orthogonalEdgeStyle;rounded=0;orthogonalLoop=1;jettySize=auto;html=1;" parent="1" source="tfH775x21Em-WbxbBMdr-21" target="CAzMv215r4XDbud7KLnu-59" edge="1"><mxGeometry relative="1" as="geometry"><mxPoint x="80" y="730" as="targetPoint"/></mxGeometry></mxCell><mxCell id="CAzMv215r4XDbud7KLnu-60" style="edgeStyle=orthogonalEdgeStyle;rounded=0;orthogonalLoop=1;jettySize=auto;html=1;" parent="1" source="tfH775x21Em-WbxbBMdr-21" edge="1"><mxGeometry relative="1" as="geometry"><mxPoint y="800" as="targetPoint"/></mxGeometry></mxCell><mxCell id="tfH775x21Em-WbxbBMdr-21" value="PSP" style="rounded=0;whiteSpace=wrap;html=1;" parent="1" vertex="1"><mxGeometry x="-25" y="530" width="120" height="60" as="geometry"/></mxCell><mxCell id="CAzMv215r4XDbud7KLnu-8" style="edgeStyle=orthogonalEdgeStyle;rounded=0;orthogonalLoop=1;jettySize=auto;html=1;entryX=1;entryY=0.25;entryDx=0;entryDy=0;" parent="1" source="tfH775x21Em-WbxbBMdr-27" target="tfH775x21Em-WbxbBMdr-21" edge="1"><mxGeometry relative="1" as="geometry"><Array as="points"><mxPoint x="340" y="545"/></Array></mxGeometry></mxCell><mxCell id="CAzMv215r4XDbud7KLnu-9" value="payment id&lt;br&gt;payment url" style="edgeLabel;html=1;align=center;verticalAlign=middle;resizable=0;points=[];" parent="CAzMv215r4XDbud7KLnu-8" vertex="1" connectable="0"><mxGeometry x="0.474" y="-3" relative="1" as="geometry"><mxPoint as="offset"/></mxGeometry></mxCell><mxCell id="CAzMv215r4XDbud7KLnu-13" style="edgeStyle=orthogonalEdgeStyle;rounded=0;orthogonalLoop=1;jettySize=auto;html=1;entryX=0;entryY=0.5;entryDx=0;entryDy=0;" parent="1" source="tfH775x21Em-WbxbBMdr-27" target="CAzMv215r4XDbud7KLnu-14" edge="1"><mxGeometry relative="1" as="geometry"><mxPoint x="580" y="420" as="targetPoint"/></mxGeometry></mxCell><mxCell id="CAzMv215r4XDbud7KLnu-15" value="generated acquirer order id&lt;br&gt;acquirer timestamp&lt;br&gt;card info&lt;br&gt;amount" style="edgeLabel;html=1;align=center;verticalAlign=middle;resizable=0;points=[];" parent="CAzMv215r4XDbud7KLnu-13" vertex="1" connectable="0"><mxGeometry x="-0.3955" y="1" relative="1" as="geometry"><mxPoint x="23" y="1" as="offset"/></mxGeometry></mxCell><mxCell id="tfH775x21Em-WbxbBMdr-27" value="ACQUIRER BANK" style="rounded=0;whiteSpace=wrap;html=1;" parent="1" vertex="1"><mxGeometry x="305" y="390" width="120" height="60" as="geometry"/></mxCell><mxCell id="tfH775x21Em-WbxbBMdr-28" value="" style="shape=cylinder3;whiteSpace=wrap;html=1;boundedLbl=1;backgroundOutline=1;size=15;" parent="1" vertex="1"><mxGeometry x="395" y="270" width="60" height="80" as="geometry"/></mxCell><mxCell id="tfH775x21Em-WbxbBMdr-29" style="edgeStyle=orthogonalEdgeStyle;rounded=0;orthogonalLoop=1;jettySize=auto;html=1;entryX=0;entryY=0.5;entryDx=0;entryDy=0;entryPerimeter=0;" parent="1" source="tfH775x21Em-WbxbBMdr-27" target="tfH775x21Em-WbxbBMdr-28" edge="1"><mxGeometry relative="1" as="geometry"/></mxCell><mxCell id="CAzMv215r4XDbud7KLnu-33" style="edgeStyle=orthogonalEdgeStyle;rounded=0;orthogonalLoop=1;jettySize=auto;html=1;entryX=1;entryY=0.5;entryDx=0;entryDy=0;" parent="1" source="CAzMv215r4XDbud7KLnu-2" target="CAzMv215r4XDbud7KLnu-31" edge="1"><mxGeometry relative="1" as="geometry"><Array as="points"><mxPoint x="-10" y="430"/><mxPoint x="-10" y="507"/></Array></mxGeometry></mxCell><mxCell id="CAzMv215r4XDbud7KLnu-2" value="" style="shape=cylinder3;whiteSpace=wrap;html=1;boundedLbl=1;backgroundOutline=1;size=15;" parent="1" vertex="1"><mxGeometry x="5" y="370" width="60" height="80" as="geometry"/></mxCell><mxCell id="CAzMv215r4XDbud7KLnu-3" value="&lt;br&gt;success url&lt;br&gt;failed url&lt;br&gt;error url" style="text;html=1;strokeColor=none;fillColor=none;align=center;verticalAlign=middle;whiteSpace=wrap;rounded=0;" parent="1" vertex="1"><mxGeometry x="-210" y="300" width="140" height="30" as="geometry"/></mxCell><mxCell id="CAzMv215r4XDbud7KLnu-4" style="edgeStyle=orthogonalEdgeStyle;rounded=0;orthogonalLoop=1;jettySize=auto;html=1;entryX=0.625;entryY=1.017;entryDx=0;entryDy=0;entryPerimeter=0;" parent="1" source="tfH775x21Em-WbxbBMdr-21" target="tfH775x21Em-WbxbBMdr-27" edge="1"><mxGeometry relative="1" as="geometry"><Array as="points"><mxPoint x="380" y="580"/></Array></mxGeometry></mxCell><mxCell id="CAzMv215r4XDbud7KLnu-7" value="createPayment()" style="edgeLabel;html=1;align=center;verticalAlign=middle;resizable=0;points=[];" parent="CAzMv215r4XDbud7KLnu-4" vertex="1" connectable="0"><mxGeometry x="0.2742" relative="1" as="geometry"><mxPoint as="offset"/></mxGeometry></mxCell><mxCell id="CAzMv215r4XDbud7KLnu-5" value="request body:&lt;br&gt;&lt;br&gt;merchant id&lt;br&gt;merchant password&lt;br&gt;merchant order id&lt;br&gt;merchant timestamp&lt;br&gt;amount&lt;br&gt;success url&lt;br&gt;failed url&amp;nbsp;&amp;nbsp;&lt;br&gt;error url" style="text;html=1;strokeColor=none;fillColor=none;align=center;verticalAlign=middle;whiteSpace=wrap;rounded=0;" parent="1" vertex="1"><mxGeometry x="305.5" y="650" width="145" height="30" as="geometry"/></mxCell><mxCell id="CAzMv215r4XDbud7KLnu-11" style="edgeStyle=orthogonalEdgeStyle;rounded=0;orthogonalLoop=1;jettySize=auto;html=1;" parent="1" source="CAzMv215r4XDbud7KLnu-10" target="tfH775x21Em-WbxbBMdr-27" edge="1"><mxGeometry relative="1" as="geometry"><Array as="points"><mxPoint x="330" y="230"/></Array></mxGeometry></mxCell><mxCell id="CAzMv215r4XDbud7KLnu-12" value="payment id&lt;br&gt;pan&lt;br&gt;securyt code&lt;br&gt;card holder name&lt;br&gt;expiry month&lt;br&gt;expiry year" style="edgeLabel;html=1;align=center;verticalAlign=middle;resizable=0;points=[];" parent="CAzMv215r4XDbud7KLnu-11" vertex="1" connectable="0"><mxGeometry x="-0.6318" y="1" relative="1" as="geometry"><mxPoint as="offset"/></mxGeometry></mxCell><mxCell id="CAzMv215r4XDbud7KLnu-10" value="Issuer" style="shape=umlActor;verticalLabelPosition=bottom;verticalAlign=top;html=1;outlineConnect=0;" parent="1" vertex="1"><mxGeometry x="20" y="200" width="30" height="60" as="geometry"/></mxCell><mxCell id="CAzMv215r4XDbud7KLnu-16" style="edgeStyle=orthogonalEdgeStyle;rounded=0;orthogonalLoop=1;jettySize=auto;html=1;" parent="1" source="CAzMv215r4XDbud7KLnu-14" target="CAzMv215r4XDbud7KLnu-17" edge="1"><mxGeometry relative="1" as="geometry"><mxPoint x="850" y="420" as="targetPoint"/></mxGeometry></mxCell><mxCell id="CAzMv215r4XDbud7KLnu-56" value="acquirer order id&lt;br&gt;acquirer timestamp&lt;br&gt;card info&lt;br&gt;amount" style="edgeLabel;html=1;align=center;verticalAlign=middle;resizable=0;points=[];" parent="CAzMv215r4XDbud7KLnu-16" vertex="1" connectable="0"><mxGeometry x="-0.5347" y="4" relative="1" as="geometry"><mxPoint x="43" y="4" as="offset"/></mxGeometry></mxCell><mxCell id="CAzMv215r4XDbud7KLnu-44" style="edgeStyle=orthogonalEdgeStyle;rounded=0;orthogonalLoop=1;jettySize=auto;html=1;" parent="1" source="CAzMv215r4XDbud7KLnu-14" edge="1"><mxGeometry relative="1" as="geometry"><mxPoint x="670" y="530" as="targetPoint"/></mxGeometry></mxCell><mxCell id="CAzMv215r4XDbud7KLnu-14" value="PCC" style="rounded=0;whiteSpace=wrap;html=1;" parent="1" vertex="1"><mxGeometry x="610" y="390" width="120" height="60" as="geometry"/></mxCell><mxCell id="CAzMv215r4XDbud7KLnu-18" style="edgeStyle=orthogonalEdgeStyle;rounded=0;orthogonalLoop=1;jettySize=auto;html=1;" parent="1" source="CAzMv215r4XDbud7KLnu-17" target="CAzMv215r4XDbud7KLnu-19" edge="1"><mxGeometry relative="1" as="geometry"><mxPoint x="992" y="290" as="targetPoint"/></mxGeometry></mxCell><mxCell id="CAzMv215r4XDbud7KLnu-17" value="ISSUER BANK" style="rounded=0;whiteSpace=wrap;html=1;" parent="1" vertex="1"><mxGeometry x="932" y="390" width="120" height="60" as="geometry"/></mxCell><mxCell id="CAzMv215r4XDbud7KLnu-19" value="" style="shape=cylinder3;whiteSpace=wrap;html=1;boundedLbl=1;backgroundOutline=1;size=15;" parent="1" vertex="1"><mxGeometry x="962" y="260" width="60" height="80" as="geometry"/></mxCell><mxCell id="CAzMv215r4XDbud7KLnu-26" value="User" style="swimlane;fontStyle=1;align=center;verticalAlign=middle;childLayout=stackLayout;horizontal=1;startSize=29;horizontalStack=0;resizeParent=1;resizeParentMax=0;resizeLast=0;collapsible=0;marginBottom=0;html=1;whiteSpace=wrap;" parent="1" vertex="1"><mxGeometry x="-210" y="350" width="140" height="70" as="geometry"/></mxCell><mxCell id="CAzMv215r4XDbud7KLnu-28" value="merchant id&lt;br&gt;banka" style="text;html=1;strokeColor=none;fillColor=none;align=left;verticalAlign=middle;spacingLeft=4;spacingRight=4;overflow=hidden;rotatable=0;points=[[0,0.5],[1,0.5]];portConstraint=eastwest;whiteSpace=wrap;" parent="CAzMv215r4XDbud7KLnu-26" vertex="1"><mxGeometry y="29" width="140" height="41" as="geometry"/></mxCell><mxCell id="CAzMv215r4XDbud7KLnu-29" value="Transaction" style="swimlane;fontStyle=1;align=center;verticalAlign=middle;childLayout=stackLayout;horizontal=1;startSize=29;horizontalStack=0;resizeParent=1;resizeParentMax=0;resizeLast=0;collapsible=0;marginBottom=0;html=1;whiteSpace=wrap;" parent="1" vertex="1"><mxGeometry x="-210" y="440" width="140" height="105" as="geometry"/></mxCell><mxCell id="CAzMv215r4XDbud7KLnu-31" value="merchant id&lt;br&gt;merchant order id&lt;br&gt;amount&lt;br&gt;timestamp" style="text;html=1;strokeColor=none;fillColor=none;align=left;verticalAlign=middle;spacingLeft=4;spacingRight=4;overflow=hidden;rotatable=0;points=[[0,0.5],[1,0.5]];portConstraint=eastwest;whiteSpace=wrap;" parent="CAzMv215r4XDbud7KLnu-29" vertex="1"><mxGeometry y="29" width="140" height="76" as="geometry"/></mxCell><mxCell id="CAzMv215r4XDbud7KLnu-32" style="edgeStyle=orthogonalEdgeStyle;rounded=0;orthogonalLoop=1;jettySize=auto;html=1;entryX=1.021;entryY=0.171;entryDx=0;entryDy=0;entryPerimeter=0;" parent="1" source="CAzMv215r4XDbud7KLnu-2" target="CAzMv215r4XDbud7KLnu-28" edge="1"><mxGeometry relative="1" as="geometry"><Array as="points"><mxPoint x="-67" y="390"/></Array></mxGeometry></mxCell><mxCell id="CAzMv215r4XDbud7KLnu-34" value="PSP kreira merchant order id, successurl, error url i failed url" style="text;html=1;strokeColor=none;fillColor=none;align=center;verticalAlign=middle;whiteSpace=wrap;rounded=0;" parent="1" vertex="1"><mxGeometry x="-120" y="590" width="110" height="30" as="geometry"/></mxCell><mxCell id="CAzMv215r4XDbud7KLnu-37" value="User" style="swimlane;fontStyle=1;align=center;verticalAlign=middle;childLayout=stackLayout;horizontal=1;startSize=29;horizontalStack=0;resizeParent=1;resizeParentMax=0;resizeLast=0;collapsible=0;marginBottom=0;html=1;whiteSpace=wrap;" parent="1" vertex="1"><mxGeometry x="620" y="163" width="140" height="80" as="geometry"/></mxCell><mxCell id="CAzMv215r4XDbud7KLnu-38" value="id&lt;br&gt;password&lt;br&gt;card info" style="text;html=1;strokeColor=none;fillColor=none;align=left;verticalAlign=middle;spacingLeft=4;spacingRight=4;overflow=hidden;rotatable=0;points=[[0,0.5],[1,0.5]];portConstraint=eastwest;whiteSpace=wrap;" parent="CAzMv215r4XDbud7KLnu-37" vertex="1"><mxGeometry y="29" width="140" height="51" as="geometry"/></mxCell><mxCell id="CAzMv215r4XDbud7KLnu-40" value="merchant id&lt;br&gt;merchant passwod su id i password ovde" style="ellipse;shape=cloud;whiteSpace=wrap;html=1;" parent="1" vertex="1"><mxGeometry x="710" y="90" width="120" height="80" as="geometry"/></mxCell><mxCell id="CAzMv215r4XDbud7KLnu-41" value="Transaction" style="swimlane;fontStyle=1;align=center;verticalAlign=middle;childLayout=stackLayout;horizontal=1;startSize=29;horizontalStack=0;resizeParent=1;resizeParentMax=0;resizeLast=0;collapsible=0;marginBottom=0;html=1;whiteSpace=wrap;" parent="1" vertex="1"><mxGeometry x="465" y="115" width="140" height="250" as="geometry"/></mxCell><mxCell id="CAzMv215r4XDbud7KLnu-42" value="userId&lt;br&gt;paymend id&lt;br&gt;merchant order id&lt;br&gt;merchant timestamp&lt;br&gt;amount&amp;nbsp;&lt;br&gt;success url&lt;br&gt;failed url&lt;br&gt;error url&lt;br&gt;&lt;br&gt;issuer card info&lt;br&gt;&lt;br&gt;(kad&amp;nbsp; nije ista banka:)&lt;br&gt;acquirer order id&amp;nbsp;&lt;br&gt;acquirer timestamp" style="text;html=1;strokeColor=none;fillColor=none;align=left;verticalAlign=middle;spacingLeft=4;spacingRight=4;overflow=hidden;rotatable=0;points=[[0,0.5],[1,0.5]];portConstraint=eastwest;whiteSpace=wrap;" parent="CAzMv215r4XDbud7KLnu-41" vertex="1"><mxGeometry y="29" width="140" height="221" as="geometry"/></mxCell><mxCell id="CAzMv215r4XDbud7KLnu-47" value="" style="shape=cylinder3;whiteSpace=wrap;html=1;boundedLbl=1;backgroundOutline=1;size=15;" parent="1" vertex="1"><mxGeometry x="640" y="528" width="60" height="80" as="geometry"/></mxCell><mxCell id="CAzMv215r4XDbud7KLnu-48" value="Transaction" style="swimlane;fontStyle=1;align=center;verticalAlign=middle;childLayout=stackLayout;horizontal=1;startSize=29;horizontalStack=0;resizeParent=1;resizeParentMax=0;resizeLast=0;collapsible=0;marginBottom=0;html=1;whiteSpace=wrap;" parent="1" vertex="1"><mxGeometry x="605" y="630" width="140" height="100" as="geometry"/></mxCell><mxCell id="CAzMv215r4XDbud7KLnu-49" value="acqurire order id&lt;br&gt;acquirer timestamp&lt;br&gt;card info" style="text;html=1;strokeColor=none;fillColor=none;align=center;verticalAlign=middle;spacingLeft=4;spacingRight=4;overflow=hidden;rotatable=0;points=[[0,0.5],[1,0.5]];portConstraint=eastwest;whiteSpace=wrap;" parent="CAzMv215r4XDbud7KLnu-48" vertex="1"><mxGeometry y="29" width="140" height="71" as="geometry"/></mxCell><mxCell id="CAzMv215r4XDbud7KLnu-51" value="User" style="swimlane;fontStyle=1;align=center;verticalAlign=middle;childLayout=stackLayout;horizontal=1;startSize=29;horizontalStack=0;resizeParent=1;resizeParentMax=0;resizeLast=0;collapsible=0;marginBottom=0;html=1;whiteSpace=wrap;" parent="1" vertex="1"><mxGeometry x="1207" y="120" width="140" height="80" as="geometry"/></mxCell><mxCell id="CAzMv215r4XDbud7KLnu-52" value="id&lt;br&gt;password&lt;br&gt;card info" style="text;html=1;strokeColor=none;fillColor=none;align=left;verticalAlign=middle;spacingLeft=4;spacingRight=4;overflow=hidden;rotatable=0;points=[[0,0.5],[1,0.5]];portConstraint=eastwest;whiteSpace=wrap;" parent="CAzMv215r4XDbud7KLnu-51" vertex="1"><mxGeometry y="29" width="140" height="51" as="geometry"/></mxCell><mxCell id="CAzMv215r4XDbud7KLnu-53" value="merchant id&lt;br&gt;merchant passwod su id i password ovde" style="ellipse;shape=cloud;whiteSpace=wrap;html=1;" parent="1" vertex="1"><mxGeometry x="1312" y="70" width="120" height="80" as="geometry"/></mxCell><mxCell id="CAzMv215r4XDbud7KLnu-54" value="Transaction" style="swimlane;fontStyle=1;align=center;verticalAlign=middle;childLayout=stackLayout;horizontal=1;startSize=29;horizontalStack=0;resizeParent=1;resizeParentMax=0;resizeLast=0;collapsible=0;marginBottom=0;html=1;whiteSpace=wrap;" parent="1" vertex="1"><mxGeometry x="1052" y="115" width="140" height="180" as="geometry"/></mxCell><mxCell id="CAzMv215r4XDbud7KLnu-55" value="userId&lt;br&gt;paymend id&lt;br&gt;merchant order id&lt;br&gt;merchant timestamp&lt;br&gt;amount&amp;nbsp;&lt;br&gt;&lt;br&gt;issuer order id&lt;br&gt;isuer timestamp" style="text;html=1;strokeColor=none;fillColor=none;align=left;verticalAlign=middle;spacingLeft=4;spacingRight=4;overflow=hidden;rotatable=0;points=[[0,0.5],[1,0.5]];portConstraint=eastwest;whiteSpace=wrap;" parent="CAzMv215r4XDbud7KLnu-54" vertex="1"><mxGeometry y="29" width="140" height="151" as="geometry"/></mxCell><mxCell id="CAzMv215r4XDbud7KLnu-57" value="ovaj acquirer id&lt;br&gt;acquirer timestamp&lt;br&gt;se cuva u merchant order id i merchant timestamp&lt;br&gt;i kreira se novi payment id" style="ellipse;shape=cloud;whiteSpace=wrap;html=1;" parent="1" vertex="1"><mxGeometry x="890" y="40" width="180" height="140" as="geometry"/></mxCell><mxCell id="CAzMv215r4XDbud7KLnu-59" value="Paypal service" style="rounded=0;whiteSpace=wrap;html=1;" parent="1" vertex="1"><mxGeometry x="80" y="720" width="120" height="60" as="geometry"/></mxCell><mxCell id="CAzMv215r4XDbud7KLnu-61" value="Crypto service" style="rounded=0;whiteSpace=wrap;html=1;" parent="1" vertex="1"><mxGeometry x="-60" y="800" width="120" height="60" as="geometry"/></mxCell></root></mxGraphModel></diagram></mxfile>